# xmcd
# 
# Track frame offsets:
#	150
#	17615
#	32492
#	49150
#	74515
#	95432
#	108940
#	127935
#	150532
#	182642
#	199565
#	233237
#	261047
#	272755
#
# Disc length: 3833 seconds
#
# Revision: 1
# Processed by: cddbd v1.4PL0 Copyright (c) Steve Scherf et al.
# Submitted via: Audio-CD-Archiv 2.10.446
#
DISCID=b20ef70e
DTITLE=James Harman - Icepick´s story
DYEAR=1900
DGENRE=blues
TTITLE0=Dirt Road
TTITLE1=Stranger Blues
TTITLE2=Leavin' For Memphis
TTITLE3=Three Way Party
TTITLE4=I've Got News
TTITLE5=Drive-In Life
TTITLE6=Hollywood Girls
TTITLE7='temporary Blues
TTITLE8=Phonebill Blues
TTITLE9=Sparks (Start Flyin')
TTITLE10=Tall Skinny Mama (Icepick's Story)
TTITLE11=Second Voyage Of Noah's Ark
TTITLE12=Walk On The Streets (Cold And Lonely)
TTITLE13=I'm Gone
EXTD=
EXTT0=
EXTT1=
EXTT2=
EXTT3=
EXTT4=
EXTT5=
EXTT6=
EXTT7=
EXTT8=
EXTT9=
EXTT10=
EXTT11=
EXTT12=
EXTT13=
PLAYORDER=
